<svg version="1.1" id="Layer_1" xmlns="http://www.w3.org/2000/svg" xmlns:xlink="http://www.w3.org/1999/xlink" x="0px" y="0px"
	 width="100%" viewBox="0 0 400 400" enable-background="new 0 0 400 400" xml:space="preserve">
<path fill="#000000" opacity="1.000000" stroke="none" 
	d="
M216.000000,401.000000 
	C144.022339,401.000000 72.544678,401.000000 1.033510,401.000000 
	C1.033510,267.730682 1.033510,134.461334 1.033510,1.095999 
	C134.227615,1.095999 267.455322,1.095999 400.841492,1.095999 
	C400.841492,134.333191 400.841492,267.666565 400.841492,401.000000 
	C339.461395,401.000000 277.980713,401.000000 216.000000,401.000000 
M306.500000,41.000931 
	C218.111710,41.000931 129.723419,41.000931 41.322983,41.000931 
	C41.322983,148.043457 41.322983,254.264862 41.322983,360.588715 
	C147.984741,360.588715 254.323959,360.588715 360.677063,360.588715 
	C360.677063,253.956482 360.677063,147.735092 360.677063,41.000931 
	C342.739838,41.000931 325.119904,41.000931 306.500000,41.000931 
z"/>
<path fill="#8D582F" opacity="1.000000" stroke="none" 
	d="
M307.000000,41.000931 
	C325.119904,41.000931 342.739838,41.000931 360.677063,41.000931 
	C360.677063,147.735092 360.677063,253.956482 360.677063,360.588715 
	C254.323959,360.588715 147.984741,360.588715 41.322983,360.588715 
	C41.322983,254.264862 41.322983,148.043457 41.322983,41.000931 
	C129.723419,41.000931 218.111710,41.000931 307.000000,41.000931 
M338.646027,215.402176 
	C337.776489,216.299225 336.906952,217.196274 335.412811,217.926834 
	C333.808228,217.217590 332.261353,216.168182 330.584686,215.883759 
	C328.406921,215.514328 325.845062,215.121384 323.985931,215.947723 
	C322.698578,216.519928 322.319122,219.134705 320.872925,222.270081 
	C327.061584,220.917603 331.539307,219.939056 336.087219,219.633255 
	C337.105164,219.790192 338.123138,219.947144 339.574127,219.603806 
	C339.406219,218.386200 339.238342,217.168610 338.646027,215.402176 
M325.159088,177.216476 
	C325.033905,177.076202 324.908722,176.935944 324.887451,176.089264 
	C325.421783,174.554077 325.956116,173.018875 326.658478,171.000885 
	C322.017883,171.000885 317.781036,171.000885 313.699799,171.000885 
	C309.946716,160.328400 304.057648,155.813248 293.169861,155.831833 
	C287.728882,155.841125 282.122040,156.183914 276.891663,157.539154 
	C270.271973,159.254318 264.495941,160.286560 257.552490,157.248016 
	C248.918243,153.469559 239.947479,156.379913 233.301254,160.022675 
	C230.382568,158.769974 228.779388,157.654007 227.064911,157.443176 
	C224.278702,157.100586 221.419662,157.350342 218.591354,157.350311 
	C212.177490,157.350220 205.763626,157.350281 199.240479,157.350281 
	C199.240479,165.000153 199.240479,171.794296 199.240479,178.536102 
	C205.068741,180.410675 205.070679,180.410675 205.077911,186.581207 
	C205.082016,190.074997 204.844147,193.589462 205.150330,197.056213 
	C205.409302,199.988449 204.375580,201.348206 200.877182,200.918106 
	C200.647324,200.721909 200.417465,200.525726 200.582886,199.753372 
	C201.475693,196.680191 203.212204,193.570923 203.082657,190.541458 
	C202.826614,184.553726 198.796021,180.774780 192.748276,179.456329 
	C185.791687,177.939743 180.068497,180.478775 175.466553,186.651062 
	C175.093826,186.089584 174.721100,185.528107 174.271545,184.040253 
	C174.264420,181.208069 174.300659,178.374985 174.242599,175.543839 
	C174.002991,163.859955 167.101334,156.226349 155.424637,155.973389 
	C148.688431,155.827454 141.779922,156.625977 135.206451,158.127045 
	C129.645905,159.396759 124.696663,161.114182 119.266037,157.501755 
	C117.128021,156.079544 113.749641,155.749237 111.071556,156.066193 
	C104.727188,156.817062 98.463890,158.252975 91.812210,159.477432 
	C90.405510,157.112137 71.506821,155.715393 59.975136,158.018555 
	C59.975136,164.883102 59.975136,171.790588 59.975136,178.932007 
	C64.598282,179.207947 65.886772,181.766678 65.805641,185.996246 
	C65.591591,197.154892 65.589943,208.323074 65.800255,219.481857 
	C65.890930,224.293060 64.894371,228.039856 60.039539,229.312515 
	C60.039539,235.088684 60.039539,240.520691 60.039539,246.001190 
	C73.274216,246.001190 86.201088,246.001190 99.649689,246.001190 
	C99.649689,243.620880 99.824028,241.482483 99.613922,239.382568 
	C99.156128,234.807236 101.824997,229.248947 95.512085,226.363663 
	C94.805038,226.040497 94.699867,223.912094 94.693878,222.619095 
	C94.635338,209.957169 94.686432,197.294754 94.637421,184.632736 
	C94.623581,181.054993 96.023743,178.844559 99.791275,178.705582 
	C103.772675,178.558731 105.668846,180.827209 105.684311,184.543884 
	C105.723801,194.035004 105.553726,203.526810 105.523949,213.018509 
	C105.489662,223.949478 105.515984,234.880646 105.515984,245.910583 
	C117.193436,245.910583 128.412811,245.910583 139.711823,245.910583 
	C139.711823,240.103653 139.711823,234.654190 139.711823,228.947693 
	C134.620529,228.515808 133.730331,225.443390 133.830978,220.980850 
	C134.097626,209.157684 133.899887,197.324463 133.932358,185.495377 
	C133.946045,180.505432 136.239120,177.737915 140.315948,177.814255 
	C145.414032,177.909714 145.363327,181.578323 145.359314,185.241043 
	C145.339096,203.734528 145.343781,222.228058 145.360794,240.721558 
	C145.362411,242.471481 145.510635,244.221268 145.587204,245.892822 
	C157.223038,245.892822 168.289078,245.892822 179.497864,245.892822 
	C179.497864,240.207520 179.497864,234.895432 179.497864,229.625320 
	C174.406525,227.016800 174.406525,227.016800 175.383224,222.858246 
	C182.856644,227.833389 190.544891,228.528366 198.370331,223.922867 
	C199.958527,225.050095 201.481369,226.130951 202.801819,227.068130 
	C195.426468,232.386475 200.940826,239.711868 198.726318,246.006134 
	C212.538559,246.006134 225.632416,246.006134 239.062592,246.006134 
	C239.062592,240.961884 239.162811,236.142517 238.986526,231.333282 
	C238.946442,230.239197 237.943039,229.183319 237.393799,228.104370 
	C236.280640,225.917633 234.274536,223.750946 234.215988,221.534271 
	C233.899414,209.546844 234.116043,197.546341 234.038086,185.551056 
	C234.011307,181.431396 235.312775,178.611191 239.910690,178.713776 
	C244.377701,178.813446 245.145309,181.761002 245.118073,185.567535 
	C245.017868,199.561905 245.078583,213.557434 245.078690,227.552521 
	C245.078751,233.668198 245.078705,239.783875 245.078705,245.969345 
	C256.695374,245.969345 267.956512,245.969345 279.638550,245.969345 
	C279.638550,240.875687 279.753265,236.069107 279.543732,231.276733 
	C279.500763,230.293961 278.377136,228.695770 277.523651,228.525787 
	C273.830841,227.790283 273.279663,225.231903 273.276337,222.210831 
	C273.262848,209.881836 273.260681,197.552795 273.290283,185.223862 
	C273.292633,184.242889 273.213684,182.805695 273.781982,182.363083 
	C275.942169,180.680725 278.219269,178.435104 280.703125,178.060440 
	C283.884796,177.580505 285.051697,180.473892 285.054321,183.473648 
	C285.057129,186.638306 285.011078,189.802979 285.010223,192.967651 
	C285.005463,210.599213 285.007935,228.230774 285.007935,245.915405 
	C296.577728,245.915405 307.809052,245.915405 319.052460,245.915405 
	C319.052460,240.113266 319.052460,234.664490 319.052460,230.750397 
	C316.808685,228.161972 314.261169,226.592041 314.217682,224.955521 
	C313.882751,212.356277 314.033386,199.744141 314.033386,187.163452 
	C316.672485,187.068802 316.672485,187.068802 322.950348,196.824463 
	C319.099335,202.181686 321.753235,207.727219 320.873627,213.616959 
	C326.420074,213.616959 331.234680,213.738190 336.041016,213.590790 
	C345.020660,213.315399 350.789764,207.282059 348.962463,199.744904 
	C348.301147,197.017044 346.286499,194.617294 345.443146,193.078369 
	C348.401733,187.492233 346.468384,182.069962 347.205719,175.755737 
	C339.508972,176.433670 332.503113,177.050766 325.159088,177.216476 
M124.080826,252.529434 
	C124.256813,253.880249 124.432793,255.231064 124.608780,256.581879 
	C125.140877,256.762360 125.672966,256.942810 126.205063,257.123260 
	C127.111557,255.588104 128.454315,254.133362 128.757751,252.487030 
	C128.934341,251.528992 127.444748,250.263855 126.704849,249.136887 
	C125.836502,249.997757 124.968163,250.858612 124.080826,252.529434 
M333.855255,167.657074 
	C332.369446,168.489761 330.760132,169.182159 329.510193,170.282745 
	C329.281586,170.484024 330.260559,172.846359 331.148102,173.300568 
	C332.011688,173.742538 334.360138,173.265244 334.503784,172.754730 
	C334.910889,171.307739 334.523560,169.637253 333.855255,167.657074 
M71.505562,250.246445 
	C71.441811,251.856842 71.066406,253.550201 71.462471,255.038223 
	C71.628845,255.663284 73.427200,255.853958 74.483643,256.242126 
	C74.895355,254.564377 75.703918,252.842804 75.525894,251.230148 
	C75.453415,250.573639 73.238411,250.153641 71.505562,250.246445 
z"/>
<path fill="#EBE9E6" opacity="1.000000" stroke="none" 
	d="
M201.545258,201.530945 
	C204.375580,201.348206 205.409302,199.988449 205.150330,197.056213 
	C204.844147,193.589462 205.082016,190.074997 205.077911,186.581207 
	C205.070679,180.410675 205.068741,180.410675 199.240479,178.536102 
	C199.240479,171.794296 199.240479,165.000153 199.240479,157.350281 
	C205.763626,157.350281 212.177490,157.350220 218.591354,157.350311 
	C221.419662,157.350342 224.278702,157.100586 227.064911,157.443176 
	C228.779388,157.654007 230.382568,158.769974 233.301254,160.022675 
	C239.947479,156.379913 248.918243,153.469559 257.552490,157.248016 
	C264.495941,160.286560 270.271973,159.254318 276.891663,157.539154 
	C282.122040,156.183914 287.728882,155.841125 293.169861,155.831833 
	C304.057648,155.813248 309.946716,160.328400 313.699799,171.000885 
	C317.781036,171.000885 322.017883,171.000885 326.658478,171.000885 
	C325.956116,173.018875 325.421783,174.554077 324.640869,176.581329 
	C324.761932,177.271545 325.129608,177.469711 325.497284,177.667877 
	C332.503113,177.050766 339.508972,176.433670 347.205719,175.755737 
	C346.468384,182.069962 348.401733,187.492233 345.443146,193.078369 
	C346.286499,194.617294 348.301147,197.017044 348.962463,199.744904 
	C350.789764,207.282059 345.020660,213.315399 336.041016,213.590790 
	C331.234680,213.738190 326.420074,213.616959 320.873627,213.616959 
	C321.753235,207.727219 319.099335,202.181686 322.950348,196.824463 
	C316.672485,187.068802 316.672485,187.068802 314.033386,187.163452 
	C314.033386,199.744141 313.882751,212.356277 314.217682,224.955521 
	C314.261169,226.592041 316.808685,228.161972 319.052460,230.750397 
	C319.052460,234.664490 319.052460,240.113266 319.052460,245.915405 
	C307.809052,245.915405 296.577728,245.915405 285.007935,245.915405 
	C285.007935,228.230774 285.005463,210.599213 285.010223,192.967651 
	C285.011078,189.802979 285.057129,186.638306 285.054321,183.473648 
	C285.051697,180.473892 283.884796,177.580505 280.703125,178.060440 
	C278.219269,178.435104 275.942169,180.680725 273.781982,182.363083 
	C273.213684,182.805695 273.292633,184.242889 273.290283,185.223862 
	C273.260681,197.552795 273.262848,209.881836 273.276337,222.210831 
	C273.279663,225.231903 273.830841,227.790283 277.523651,228.525787 
	C278.377136,228.695770 279.500763,230.293961 279.543732,231.276733 
	C279.753265,236.069107 279.638550,240.875687 279.638550,245.969345 
	C267.956512,245.969345 256.695374,245.969345 245.078705,245.969345 
	C245.078705,239.783875 245.078751,233.668198 245.078690,227.552521 
	C245.078583,213.557434 245.017868,199.561905 245.118073,185.567535 
	C245.145309,181.761002 244.377701,178.813446 239.910690,178.713776 
	C235.312775,178.611191 234.011307,181.431396 234.038086,185.551056 
	C234.116043,197.546341 233.899414,209.546844 234.215988,221.534271 
	C234.274536,223.750946 236.280640,225.917633 237.393799,228.104370 
	C237.943039,229.183319 238.946442,230.239197 238.986526,231.333282 
	C239.162811,236.142517 239.062592,240.961884 239.062592,246.006134 
	C225.632416,246.006134 212.538559,246.006134 198.726318,246.006134 
	C200.940826,239.711868 195.426468,232.386475 202.801819,227.068130 
	C201.481369,226.130951 199.958527,225.050095 198.370331,223.922867 
	C190.544891,228.528366 182.856644,227.833389 175.383224,222.858246 
	C174.406525,227.016800 174.406525,227.016800 179.497864,229.625320 
	C179.497864,234.895432 179.497864,240.207520 179.497864,245.892822 
	C168.289078,245.892822 157.223038,245.892822 145.587204,245.892822 
	C145.510635,244.221268 145.362411,242.471481 145.360794,240.721558 
	C145.343781,222.228058 145.339096,203.734528 145.359314,185.241043 
	C145.363327,181.578323 145.414032,177.909714 140.315948,177.814255 
	C136.239120,177.737915 133.946045,180.505432 133.932358,185.495377 
	C133.899887,197.324463 134.097626,209.157684 133.830978,220.980850 
	C133.730331,225.443390 134.620529,228.515808 139.711823,228.947693 
	C139.711823,234.654190 139.711823,240.103653 139.711823,245.910583 
	C128.412811,245.910583 117.193436,245.910583 105.515984,245.910583 
	C105.515984,234.880646 105.489662,223.949478 105.523949,213.018509 
	C105.553726,203.526810 105.723801,194.035004 105.684311,184.543884 
	C105.668846,180.827209 103.772675,178.558731 99.791275,178.705582 
	C96.023743,178.844559 94.623581,181.054993 94.637421,184.632736 
	C94.686432,197.294754 94.635338,209.957169 94.693878,222.619095 
	C94.699867,223.912094 94.805038,226.040497 95.512085,226.363663 
	C101.824997,229.248947 99.156128,234.807236 99.613922,239.382568 
	C99.824028,241.482483 99.649689,243.620880 99.649689,246.001190 
	C86.201088,246.001190 73.274216,246.001190 60.039539,246.001190 
	C60.039539,240.520691 60.039539,235.088684 60.039539,229.312515 
	C64.894371,228.039856 65.890930,224.293060 65.800255,219.481857 
	C65.589943,208.323074 65.591591,197.154892 65.805641,185.996246 
	C65.886772,181.766678 64.598282,179.207947 59.975136,178.932007 
	C59.975136,171.790588 59.975136,164.883102 59.975136,158.018555 
	C71.506821,155.715393 90.405510,157.112137 91.812210,159.477432 
	C98.463890,158.252975 104.727188,156.817062 111.071556,156.066193 
	C113.749641,155.749237 117.128021,156.079544 119.266037,157.501755 
	C124.696663,161.114182 129.645905,159.396759 135.206451,158.127045 
	C141.779922,156.625977 148.688431,155.827454 155.424637,155.973389 
	C167.101334,156.226349 174.002991,163.859955 174.242599,175.543839 
	C174.300659,178.374985 174.264420,181.208069 174.215744,184.964706 
	C174.159943,191.247086 174.159943,196.605026 174.159943,201.962952 
	C174.730835,202.049210 175.301727,202.135468 175.872604,202.221725 
	C176.101868,200.777313 176.553711,199.327194 176.516785,197.889618 
	C176.422882,194.235916 176.110214,190.587830 175.885132,186.937485 
	C180.068497,180.478775 185.791687,177.939743 192.748276,179.456329 
	C198.796021,180.774780 202.826614,184.553726 203.082657,190.541458 
	C203.212204,193.570923 201.475693,196.680191 200.081238,200.259949 
	C199.195892,201.781906 198.812225,202.797302 198.428558,203.812698 
	C198.865051,203.987564 199.301544,204.162445 199.738022,204.337326 
	C200.340439,203.401855 200.942841,202.466400 201.545258,201.530945 
M285.635956,176.861145 
	C286.498352,179.443512 288.068939,182.016083 288.104889,184.609909 
	C288.296265,198.429367 288.096375,212.254105 288.047028,226.077087 
	C288.026550,231.810669 288.043640,237.544388 288.043640,242.991455 
	C298.044830,242.991455 307.274048,242.991455 316.629547,242.991455 
	C316.629547,238.931213 316.629547,235.293777 316.629547,231.354507 
	C311.688843,230.252151 310.643127,226.659317 310.722015,222.015839 
	C310.897400,211.691254 310.793396,201.361572 310.755035,191.034149 
	C310.750336,189.769608 310.510437,188.494659 310.270691,187.245422 
	C310.029114,185.986664 309.069397,184.549973 309.422791,183.540970 
	C313.600739,171.612762 307.114716,160.770386 294.565369,158.991486 
	C285.442902,157.698380 276.716736,159.589157 268.026520,162.126465 
	C266.332672,162.621017 264.014587,162.705215 262.539581,161.926773 
	C255.623840,158.276978 248.477982,157.967133 241.234879,160.133636 
	C237.188126,161.344055 233.382080,163.359207 229.361099,165.056671 
	C229.167664,163.418854 228.998108,161.983063 228.820374,160.478149 
	C220.178360,160.478149 211.754517,160.478149 202.895920,160.478149 
	C202.895920,165.184998 202.802521,169.648651 202.973999,174.102081 
	C203.008667,175.002350 203.850906,176.321716 204.654282,176.663025 
	C207.872726,178.030396 208.320557,180.530960 208.257462,183.582108 
	C208.138794,189.322052 208.223236,195.066177 208.223236,200.742142 
	C210.578094,200.926865 212.175507,201.052185 213.983200,201.193985 
	C213.983200,204.910690 213.983200,208.348633 213.983200,211.419632 
	C212.014160,212.271576 210.322464,213.003525 208.630768,213.735474 
	C208.755920,214.052994 208.881058,214.370499 209.006210,214.688004 
	C210.717972,214.906006 212.429749,215.124008 214.013672,215.325745 
	C214.013672,219.163803 214.013672,222.623779 214.013672,226.077087 
	C204.913742,225.982254 200.692993,232.777817 203.483582,243.001160 
	C214.098816,243.001160 224.658661,243.001160 235.983231,243.001160 
	C235.343536,238.530853 235.045639,234.486465 234.114197,230.593674 
	C233.433762,227.749908 231.013519,225.132095 230.932892,222.367935 
	C230.573624,210.051971 230.741791,197.719437 230.791473,185.393188 
	C230.817566,178.921097 233.787888,175.543381 239.336929,175.433502 
	C245.206116,175.317307 248.211975,178.665253 248.218063,185.421524 
	C248.233856,202.911743 248.223373,220.402008 248.223389,237.892242 
	C248.223389,239.628799 248.223404,241.365341 248.223404,243.126358 
	C258.117462,243.126358 267.210632,243.126358 276.537720,243.126358 
	C276.537720,239.058105 276.537720,235.272034 276.537720,231.304474 
	C271.805359,229.955048 270.621490,226.488556 270.705597,221.770737 
	C270.919373,209.781250 270.762360,197.785370 270.781372,185.792084 
	C270.795532,176.855377 276.722046,172.938812 285.635956,176.861145 
M113.965141,159.033188 
	C105.188866,158.001816 97.353706,160.834641 89.920937,165.554932 
	C89.459236,163.397125 89.132744,161.871216 88.847237,160.536865 
	C80.062180,160.536865 71.669746,160.536865 63.166183,160.536865 
	C63.166183,165.814972 63.166183,170.787247 63.166183,175.947205 
	C66.929245,177.038971 69.016388,179.205688 68.959595,183.476105 
	C68.786743,196.472778 68.969200,209.474030 68.822250,222.471344 
	C68.799049,224.523788 68.441345,227.585739 67.117210,228.436920 
	C60.986275,232.377991 63.754673,237.887695 63.415302,243.149292 
	C74.432426,243.149292 85.005844,243.149292 96.024101,243.149292 
	C95.013512,238.053070 98.525200,232.404633 92.446732,228.583176 
	C91.430710,227.944412 91.170891,225.544662 91.159271,223.954254 
	C91.061913,210.622696 91.027588,197.289444 91.144188,183.958191 
	C91.187401,179.017593 93.935822,176.186554 98.646957,175.551498 
	C104.864410,174.713394 108.890137,178.428055 108.875740,185.271423 
	C108.838936,202.763443 108.694908,220.255234 108.596481,237.747116 
	C108.586555,239.511353 108.595154,241.275681 108.595154,243.024933 
	C118.471565,243.024933 127.674988,243.024933 137.134827,243.024933 
	C136.455429,237.651672 139.521011,231.766098 132.697845,228.395981 
	C131.547806,227.827957 131.188660,224.821899 131.169846,222.935257 
	C131.041855,210.104218 130.928650,197.266876 131.254074,184.442810 
	C131.317108,181.958221 132.701935,178.376907 134.594543,177.338730 
	C137.309921,175.849228 141.239807,175.364426 144.308578,176.030167 
	C148.273621,176.890335 148.876465,180.953766 148.867752,184.569519 
	C148.836853,197.395264 148.678238,210.220627 148.602036,223.046356 
	C148.562714,229.663727 148.595123,236.281540 148.595123,243.105133 
	C158.330063,243.105133 167.538300,243.105133 177.100311,243.105133 
	C177.100311,239.672989 177.214630,236.528946 177.028275,233.402832 
	C176.974716,232.504547 176.257660,231.211746 175.495514,230.862885 
	C171.648636,229.102051 171.041870,225.977142 171.063736,222.208755 
	C171.150742,207.214691 171.229584,192.217865 171.031555,177.225769 
	C170.891434,166.616898 164.940384,160.022705 154.338867,159.065384 
	C149.106415,158.592865 143.491699,158.446579 138.523300,159.840195 
	C130.351074,162.132462 122.614273,163.483871 113.965141,159.033188 
M212.092300,218.854324 
	C211.433655,218.312134 210.838013,217.655380 210.103317,217.251511 
	C208.553589,216.399612 206.931091,215.680099 205.338425,214.906250 
	C206.658173,213.106934 207.865204,211.204803 209.360458,209.565552 
	C209.865692,209.011658 211.100830,209.123550 211.884247,208.956390 
	C211.884247,207.134430 211.884247,205.702026 211.884247,203.941162 
	C207.290024,204.163330 202.252106,201.941330 199.965210,208.855988 
	C197.780731,206.419235 196.048431,204.486877 194.325150,202.564606 
	C201.374847,194.230560 202.449097,189.695801 198.494156,185.188141 
	C194.969269,181.170639 187.089279,180.174316 182.427414,183.156677 
	C177.026611,186.611816 176.565857,191.173645 180.728073,200.356293 
	C180.379471,200.664368 180.027359,201.002899 179.647659,201.306992 
	C173.108749,206.544266 171.385742,211.134827 173.913513,216.601761 
	C176.752289,222.741348 182.592957,225.529556 190.182373,223.956604 
	C193.352310,223.299622 196.370239,221.909119 199.457275,220.852127 
	C199.394791,221.366531 199.332321,221.880936 199.269836,222.395340 
	C203.354752,223.102417 207.439651,223.809494 212.111893,224.618240 
	C212.111893,222.304581 212.111893,221.024551 212.092300,218.854324 
M322.504211,186.147125 
	C321.378845,191.302307 323.884338,194.434174 328.346191,196.326309 
	C330.627655,197.293808 333.247314,197.623062 335.309631,198.896042 
	C336.858704,199.852280 337.763000,201.853088 338.954346,203.388855 
	C336.934601,204.212082 334.874176,205.746460 332.907990,205.633942 
	C331.330139,205.543655 329.889832,203.425385 328.344513,202.265701 
	C327.190063,201.399384 325.965454,200.626587 324.192810,199.416779 
	C324.192810,204.039810 324.192810,207.289810 324.192810,211.087402 
	C326.459106,210.635422 328.308289,209.987534 330.163422,209.970139 
	C332.287476,209.950226 334.427246,210.798065 336.541748,210.726105 
	C341.733795,210.549347 345.531464,207.487335 346.398376,203.175232 
	C347.321838,198.581787 344.883240,194.365570 339.839111,192.280930 
	C337.711060,191.401443 335.256897,191.244827 333.228729,190.213409 
	C331.884491,189.529816 331.033508,187.876343 329.961700,186.657043 
	C331.397430,185.716782 332.891541,183.943161 334.254730,184.038651 
	C336.129608,184.170013 337.926758,185.677063 339.717194,186.667023 
	C341.256378,187.518082 342.739532,188.470551 344.613617,189.598572 
	C344.613617,185.272934 344.613617,182.210709 344.613617,178.867126 
	C340.284271,178.867126 336.307281,178.789825 332.334595,178.887466 
	C327.784882,178.999268 324.307770,180.826462 322.504211,186.147125 
M319.458374,173.875931 
	C312.409393,173.777466 314.767914,180.488037 311.049072,183.847595 
	C314.468964,183.847595 316.609253,183.847595 319.019379,183.847595 
	C320.343201,180.693130 321.673248,177.523865 323.107483,174.106354 
	C321.907776,174.008545 321.097443,173.942490 319.458374,173.875931 
z"/>
<path fill="#443122" opacity="1.000000" stroke="none" 
	d="
M336.017029,218.960510 
	C331.539307,219.939056 327.061584,220.917603 320.872925,222.270081 
	C322.319122,219.134705 322.698578,216.519928 323.985931,215.947723 
	C325.845062,215.121384 328.406921,215.514328 330.584686,215.883759 
	C332.261353,216.168182 333.808228,217.217590 335.722229,218.226562 
	C336.031677,218.526291 336.017029,218.960510 336.017029,218.960510 
z"/>
<path fill="#3F2F21" opacity="1.000000" stroke="none" 
	d="
M124.090324,252.124451 
	C124.968163,250.858612 125.836502,249.997757 126.704849,249.136887 
	C127.444748,250.263855 128.934341,251.528992 128.757751,252.487030 
	C128.454315,254.133362 127.111557,255.588104 126.205063,257.123260 
	C125.672966,256.942810 125.140877,256.762360 124.608780,256.581879 
	C124.432793,255.231064 124.256813,253.880249 124.090324,252.124451 
z"/>
<path fill="#483423" opacity="1.000000" stroke="none" 
	d="
M334.152161,167.855927 
	C334.523560,169.637253 334.910889,171.307739 334.503784,172.754730 
	C334.360138,173.265244 332.011688,173.742538 331.148102,173.300568 
	C330.260559,172.846359 329.281586,170.484024 329.510193,170.282745 
	C330.760132,169.182159 332.369446,168.489761 334.152161,167.855927 
z"/>
<path fill="#403021" opacity="1.000000" stroke="none" 
	d="
M71.751892,249.936249 
	C73.238411,250.153641 75.453415,250.573639 75.525894,251.230148 
	C75.703918,252.842804 74.895355,254.564377 74.483643,256.242126 
	C73.427200,255.853958 71.628845,255.663284 71.462471,255.038223 
	C71.066406,253.550201 71.441811,251.856842 71.751892,249.936249 
z"/>
<path fill="#A77E5E" opacity="1.000000" stroke="none" 
	d="
M175.675842,186.794281 
	C176.110214,190.587830 176.422882,194.235916 176.516785,197.889618 
	C176.553711,199.327194 176.101868,200.777313 175.872604,202.221725 
	C175.301727,202.135468 174.730835,202.049210 174.159943,201.962952 
	C174.159943,196.605026 174.159943,191.247086 174.254150,185.427902 
	C174.721100,185.528107 175.093826,186.089584 175.675842,186.794281 
z"/>
<path fill="#372B20" opacity="1.000000" stroke="none" 
	d="
M336.052124,219.296875 
	C336.017029,218.960510 336.031677,218.526291 336.034546,218.309814 
	C336.906952,217.196274 337.776489,216.299225 338.843140,215.687561 
	C339.040253,215.972961 339.008545,215.989838 338.688049,216.102661 
	C336.338348,217.827164 336.531891,219.079895 339.014954,220.003983 
	C339.056122,220.038422 339.141083,220.104080 339.141083,220.104095 
	C338.123138,219.947144 337.105164,219.790192 336.052124,219.296875 
z"/>
<path fill="#372B20" opacity="1.000000" stroke="none" 
	d="
M339.055359,215.961975 
	C339.238342,217.168610 339.406219,218.386200 339.357605,219.853943 
	C339.141083,220.104080 339.056122,220.038422 339.013794,219.607422 
	C338.983795,218.114227 338.996155,217.052032 339.008545,215.989838 
	C339.008545,215.989838 339.040253,215.972961 339.055359,215.961975 
z"/>
<path fill="#21211F" opacity="1.000000" stroke="none" 
	d="
M285.323547,176.607880 
	C276.722046,172.938812 270.795532,176.855377 270.781372,185.792084 
	C270.762360,197.785370 270.919373,209.781250 270.705597,221.770737 
	C270.621490,226.488556 271.805359,229.955048 276.537720,231.304474 
	C276.537720,235.272034 276.537720,239.058105 276.537720,243.126358 
	C267.210632,243.126358 258.117462,243.126358 248.223404,243.126358 
	C248.223404,241.365341 248.223389,239.628799 248.223389,237.892242 
	C248.223373,220.402008 248.233856,202.911743 248.218063,185.421524 
	C248.211975,178.665253 245.206116,175.317307 239.336929,175.433502 
	C233.787888,175.543381 230.817566,178.921097 230.791473,185.393188 
	C230.741791,197.719437 230.573624,210.051971 230.932892,222.367935 
	C231.013519,225.132095 233.433762,227.749908 234.114197,230.593674 
	C235.045639,234.486465 235.343536,238.530853 235.983231,243.001160 
	C224.658661,243.001160 214.098816,243.001160 203.483582,243.001160 
	C200.692993,232.777817 204.913742,225.982254 214.013672,226.077087 
	C214.013672,222.623779 214.013672,219.163803 214.013672,215.325745 
	C212.429749,215.124008 210.717972,214.906006 209.006210,214.688004 
	C208.881058,214.370499 208.755920,214.052994 208.630768,213.735474 
	C210.322464,213.003525 212.014160,212.271576 213.983200,211.419632 
	C213.983200,208.348633 213.983200,204.910690 213.983200,201.193985 
	C212.175507,201.052185 210.578094,200.926865 208.223236,200.742142 
	C208.223236,195.066177 208.138794,189.322052 208.257462,183.582108 
	C208.320557,180.530960 207.872726,178.030396 204.654282,176.663025 
	C203.850906,176.321716 203.008667,175.002350 202.973999,174.102081 
	C202.802521,169.648651 202.895920,165.184998 202.895920,160.478149 
	C211.754517,160.478149 220.178360,160.478149 228.820374,160.478149 
	C228.998108,161.983063 229.167664,163.418854 229.361099,165.056671 
	C233.382080,163.359207 237.188126,161.344055 241.234879,160.133636 
	C248.477982,157.967133 255.623840,158.276978 262.539581,161.926773 
	C264.014587,162.705215 266.332672,162.621017 268.026520,162.126465 
	C276.716736,159.589157 285.442902,157.698380 294.565369,158.991486 
	C307.114716,160.770386 313.600739,171.612762 309.422791,183.540970 
	C309.069397,184.549973 310.029114,185.986664 310.270691,187.245422 
	C310.510437,188.494659 310.750336,189.769608 310.755035,191.034149 
	C310.793396,201.361572 310.897400,211.691254 310.722015,222.015839 
	C310.643127,226.659317 311.688843,230.252151 316.629547,231.354507 
	C316.629547,235.293777 316.629547,238.931213 316.629547,242.991455 
	C307.274048,242.991455 298.044830,242.991455 288.043640,242.991455 
	C288.043640,237.544388 288.026550,231.810669 288.047028,226.077087 
	C288.096375,212.254105 288.296265,198.429367 288.104889,184.609909 
	C288.068939,182.016083 286.498352,179.443512 285.323547,176.607880 
z"/>
<path fill="#1E1E1C" opacity="1.000000" stroke="none" 
	d="
M114.396469,159.070709 
	C122.614273,163.483871 130.351074,162.132462 138.523300,159.840195 
	C143.491699,158.446579 149.106415,158.592865 154.338867,159.065384 
	C164.940384,160.022705 170.891434,166.616898 171.031555,177.225769 
	C171.229584,192.217865 171.150742,207.214691 171.063736,222.208755 
	C171.041870,225.977142 171.648636,229.102051 175.495514,230.862885 
	C176.257660,231.211746 176.974716,232.504547 177.028275,233.402832 
	C177.214630,236.528946 177.100311,239.672989 177.100311,243.105133 
	C167.538300,243.105133 158.330063,243.105133 148.595123,243.105133 
	C148.595123,236.281540 148.562714,229.663727 148.602036,223.046356 
	C148.678238,210.220627 148.836853,197.395264 148.867752,184.569519 
	C148.876465,180.953766 148.273621,176.890335 144.308578,176.030167 
	C141.239807,175.364426 137.309921,175.849228 134.594543,177.338730 
	C132.701935,178.376907 131.317108,181.958221 131.254074,184.442810 
	C130.928650,197.266876 131.041855,210.104218 131.169846,222.935257 
	C131.188660,224.821899 131.547806,227.827957 132.697845,228.395981 
	C139.521011,231.766098 136.455429,237.651672 137.134827,243.024933 
	C127.674988,243.024933 118.471565,243.024933 108.595154,243.024933 
	C108.595154,241.275681 108.586555,239.511353 108.596481,237.747116 
	C108.694908,220.255234 108.838936,202.763443 108.875740,185.271423 
	C108.890137,178.428055 104.864410,174.713394 98.646957,175.551498 
	C93.935822,176.186554 91.187401,179.017593 91.144188,183.958191 
	C91.027588,197.289444 91.061913,210.622696 91.159271,223.954254 
	C91.170891,225.544662 91.430710,227.944412 92.446732,228.583176 
	C98.525200,232.404633 95.013512,238.053070 96.024101,243.149292 
	C85.005844,243.149292 74.432426,243.149292 63.415302,243.149292 
	C63.754673,237.887695 60.986275,232.377991 67.117210,228.436920 
	C68.441345,227.585739 68.799049,224.523788 68.822250,222.471344 
	C68.969200,209.474030 68.786743,196.472778 68.959595,183.476105 
	C69.016388,179.205688 66.929245,177.038971 63.166183,175.947205 
	C63.166183,170.787247 63.166183,165.814972 63.166183,160.536865 
	C71.669746,160.536865 80.062180,160.536865 88.847237,160.536865 
	C89.132744,161.871216 89.459236,163.397125 89.920937,165.554932 
	C97.353706,160.834641 105.188866,158.001816 114.396469,159.070709 
z"/>
<path fill="#222220" opacity="1.000000" stroke="none" 
	d="
M212.102097,219.299408 
	C212.111893,221.024551 212.111893,222.304581 212.111893,224.618240 
	C207.439651,223.809494 203.354752,223.102417 199.269836,222.395340 
	C199.332321,221.880936 199.394791,221.366531 199.457275,220.852127 
	C196.370239,221.909119 193.352310,223.299622 190.182373,223.956604 
	C182.592957,225.529556 176.752289,222.741348 173.913513,216.601761 
	C171.385742,211.134827 173.108749,206.544266 179.647659,201.306992 
	C180.027359,201.002899 180.379471,200.664368 180.728073,200.356293 
	C176.565857,191.173645 177.026611,186.611816 182.427414,183.156677 
	C187.089279,180.174316 194.969269,181.170639 198.494156,185.188141 
	C202.449097,189.695801 201.374847,194.230560 194.325150,202.564606 
	C196.048431,204.486877 197.780731,206.419235 199.965210,208.855988 
	C202.252106,201.941330 207.290024,204.163330 211.884247,203.941162 
	C211.884247,205.702026 211.884247,207.134430 211.884247,208.956390 
	C211.100830,209.123550 209.865692,209.011658 209.360458,209.565552 
	C207.865204,211.204803 206.658173,213.106934 205.338440,214.906250 
	C206.931091,215.680099 208.553589,216.399612 210.103317,217.251511 
	C210.838013,217.655380 211.433655,218.312134 212.102097,219.299408 
M185.191925,217.271347 
	C187.984512,216.681351 190.777100,216.091339 194.458038,215.313644 
	C191.143661,211.541641 188.882736,208.968567 186.657654,206.436279 
	C180.396149,210.448929 179.919098,213.101807 185.191925,217.271347 
M190.589920,195.247849 
	C191.226807,193.138168 191.863693,191.028488 192.500580,188.918808 
	C190.870361,188.489197 188.985809,187.360657 187.684250,187.834290 
	C186.477524,188.273392 184.850052,191.096222 185.234619,191.693756 
	C186.316513,193.374802 188.339340,194.450302 190.589920,195.247849 
z"/>
<path fill="#262624" opacity="1.000000" stroke="none" 
	d="
M322.637177,185.783325 
	C324.307770,180.826462 327.784882,178.999268 332.334595,178.887466 
	C336.307281,178.789825 340.284271,178.867126 344.613617,178.867126 
	C344.613617,182.210709 344.613617,185.272934 344.613617,189.598572 
	C342.739532,188.470551 341.256378,187.518082 339.717194,186.667023 
	C337.926758,185.677063 336.129608,184.170013 334.254730,184.038651 
	C332.891541,183.943161 331.397430,185.716782 329.961700,186.657043 
	C331.033508,187.876343 331.884491,189.529816 333.228729,190.213409 
	C335.256897,191.244827 337.711060,191.401443 339.839111,192.280930 
	C344.883240,194.365570 347.321838,198.581787 346.398376,203.175232 
	C345.531464,207.487335 341.733795,210.549347 336.541748,210.726105 
	C334.427246,210.798065 332.287476,209.950226 330.163422,209.970139 
	C328.308289,209.987534 326.459106,210.635422 324.192810,211.087402 
	C324.192810,207.289810 324.192810,204.039810 324.192810,199.416779 
	C325.965454,200.626587 327.190063,201.399384 328.344513,202.265701 
	C329.889832,203.425385 331.330139,205.543655 332.907990,205.633942 
	C334.874176,205.746460 336.934601,204.212082 338.954346,203.388855 
	C337.763000,201.853088 336.858704,199.852280 335.309631,198.896042 
	C333.247314,197.623062 330.627655,197.293808 328.346191,196.326309 
	C323.884338,194.434174 321.378845,191.302307 322.637177,185.783325 
z"/>
<path fill="#252523" opacity="1.000000" stroke="none" 
	d="
M319.872742,173.876175 
	C321.097443,173.942490 321.907776,174.008545 323.107483,174.106354 
	C321.673248,177.523865 320.343201,180.693130 319.019379,183.847595 
	C316.609253,183.847595 314.468964,183.847595 311.049072,183.847595 
	C314.767914,180.488037 312.409393,173.777466 319.872742,173.876175 
z"/>
<path fill="#8D582F" opacity="1.000000" stroke="none" 
	d="
M201.211212,201.224518 
	C200.942841,202.466400 200.340439,203.401855 199.738022,204.337326 
	C199.301544,204.162445 198.865051,203.987564 198.428558,203.812698 
	C198.812225,202.797302 199.195892,201.781906 199.883591,200.548035 
	C200.417465,200.525726 200.647324,200.721909 201.211212,201.224518 
z"/>
<path fill="#8D582F" opacity="1.000000" stroke="none" 
	d="
M325.328186,177.442169 
	C325.129608,177.469711 324.761932,177.271545 324.588928,176.934540 
	C324.908722,176.935944 325.033905,177.076202 325.328186,177.442169 
z"/>
<path fill="#71492A" opacity="1.000000" stroke="none" 
	d="
M338.688049,216.102661 
	C338.996155,217.052032 338.983795,218.114227 338.972595,219.572983 
	C336.531891,219.079895 336.338348,217.827164 338.688049,216.102661 
z"/>
<path fill="#EAE7E4" opacity="1.000000" stroke="none" 
	d="
M184.836670,217.183228 
	C179.919098,213.101807 180.396149,210.448929 186.657654,206.436279 
	C188.882736,208.968567 191.143661,211.541641 194.458038,215.313644 
	C190.777100,216.091339 187.984512,216.681351 184.836670,217.183228 
z"/>
<path fill="#EBE9E7" opacity="1.000000" stroke="none" 
	d="
M190.290543,195.506195 
	C188.339340,194.450302 186.316513,193.374802 185.234619,191.693756 
	C184.850052,191.096222 186.477524,188.273392 187.684250,187.834290 
	C188.985809,187.360657 190.870361,188.489197 192.500580,188.918808 
	C191.863693,191.028488 191.226807,193.138168 190.290543,195.506195 
z"/>
</svg>